/* XPM */
static char *_____________[] = {
/* columns rows colors chars-per-pixel */
"64 64 55 1",
"  c #383A3B",
". c #476F3A",
"X c #4E7635",
"o c #557E31",
"O c #0E335D",
"+ c #193E56",
"@ c #153A58",
"# c #002466",
"$ c #072B61",
"% c #0C2E6D",
"& c #193974",
"* c #1D3C77",
"= c #1C4254",
"- c #2A514B",
"; c #234950",
": c #396043",
"> c #26447C",
", c #2C497F",
"< c #444648",
"1 c #6A6C71",
"2 c #5C852D",
"3 c #638D28",
"4 c #6A9424",
"5 c #729C20",
"6 c #7DA237",
"7 c #8AAA52",
"8 c #8EAC5B",
"9 c #334F83",
"0 c #365285",
"q c #3A5588",
"w c #3F598A",
"e c #405A8B",
"r c #4D6492",
"t c #5A6F9A",
"y c #5F739C",
"u c #60749D",
"i c #677AA1",
"p c #708692",
"a c #758998",
"s c #7082A6",
"d c #7385A8",
"f c #83858C",
"g c #8F939F",
"h c #8090B0",
"j c #8D9AB7",
"k c #9AA5BF",
"l c #A8ABB4",
"z c #B5BFBD",
"x c #B7C3AD",
"c c #BCC7B9",
"v c #A7B0C6",
"b c #B4BBCE",
"n c #C1C6D5",
"m c #CED1DD",
"M c None",
/* pixels */
"MMMMMMMMMMMMMMMMMMMMMMMMMMMMMMMMMMMMMMMMMMMMMMMMMMMMMMMMMMMMMMMM",
"MMMMMMMMMMMMMMMMMMMMMMMMMMMMMMMMMMMMMMMMMMMMMMMMMMMMMMMMMMMMMMMM",
"MMMMMMMMMMMMMMMMMMMMMMMMMMMMMMwt9*#MMMMMMMMMMMMMMMMMMMMMMMMMMMMM",
"MMMMMMMMMMMMMMMMMMMMMMMMMMMM,#&tvjd9MMMMMMMMMMMMMMMMMMMMMMMMMMMM",
"MMMMMMMMMMMMMMMMMMMMMMMMMMM0##tn&##th#MMMMMMMMMMMMMMMMMMMMMMMMMM",
"MMMMMMMMMMMMMMMMMMMMMMMMMMs##9g<fr##dhMMMMMMMMMMMMMMMMMMMMMMMMMM",
"MMMMMMMMMMMMMMMMMMMMMMMMMMe##h1 <m%#%muMMMMMMMMMMMMMMMMMMMMMMMMM",
"MMMMMMMMMMMMMMMMMMMMMMMMMM%##ml fm9##knMMMMMMMMMMMMMMMMMMMMMMMMM",
"MMMMMMMMMMMMMMMMMMMMMMMMMM###dmmmb###kmyMMMMMMMMMMMMMMMMMMMMMMMM",
"MMMMMMMMMMMMMMMMMMMMMMMMMM>###9kj>###nmjMMMMMMMMMMMMMMMMMMMMMMMM",
"MMMMMMMMMMMMMMMMMMMMMMMMM#&e99>>####immmMMMMMMMMMMMMMMMMMMMMMMMM",
"MMMMMMMMMMMMMMMMMMMMMMMMM#####%###%dmmmmpMMMMMMMMMMMMMMMMMMMMMMM",
"MMMMMMMMMMMMMMMMMMMMMMMM#####%##&tbmmmmmn7MMMMMMMMMMMMMMMMMMMMMM",
"MMMMMMMMMMMMMMMMMMMMMMMM###qbmmmmmmmmmmmmx5MMMMMMMMMMMMMMMMMMMMM",
"MMMMMMMMMMMMMMMMMMMMMMMMMMMMmmmmmmmmmmmmmm65MMMMMMMMMMMMMMMMMMMM",
"MMMMMMMMMMMMMMMMMMMMMMMMMMMMcmmmmmmmmmmmmm855MMMMMMMMMMMMMMMMMMM",
"MMMMMMMMMMMMMMMMMMMMMMMMMMM56zmmmmmmmmmmmma55MMMMMMMMMMMMMMMMMMM",
"MMMMMMMMMMMMMMMMMMMMMMMMMMM55:jmmmmmmmmmmmi.55MMMMMMMMMMMMMMMMMM",
"MMMMMMMMMMMMMMMMMMMMMMMMMM555.%nmmmmmmmmmm9O55MMMMMMMMMMMMMMMMMM",
"MMMMMMMMMMMMMMMMMMMMMMMMMM555o#emmmmmmmmmn%#X5MMMMMMMMMMMMMMMMMM",
"MMMMMMMMMMMMMMMMMMMMMMMMMM5555##rmmmmmmmmi##;5MMMMMMMMMMMMMMMMMM",
"MMMMMMMMMMMMMMMMMMMMMMMMM55555$##enmmmmmh####4MMMMMMMMMMMMMMMMMM",
"MMMMMMMMMMMMMMMMMMMMMMMMM55555=###%tkkh9#####X5MMMMMMMMMMMMMMMMM",
"MMMMMMMMMMMMMMMMMMMMMMMMM55555=##############:5MMMMMMMMMMMMMMMMM",
"MMMMMMMMMMMMMMMMMMMMMMMMM55555:##############=5MMMMMMMMMMMMMMMMM",
"MMMMMMMMMMMMMMMMMMMMMMMM555555:##############@MMMMMMMMMMMMMMMMMM",
"MMMMMMMMMMMMMMMMMMMMMMMM555555:###############MMMMMMMMMMMMMMMMMM",
"MMMMMMMMMMMMMMMMMMMMMMMM555555;###############MMMMMMMMMMMMMMMMMM",
"MMMMMMMMMMMMMMMMMMMMMMMM555555=###############MMMMMMMMMMMMMMMMMM",
"MMMMMMMMMMMMMMMMMMMMMMMM555555################MMMMMMMMMMMMMMMMMM",
"MMMMMMMMMMMMMMMMMMMMMMMM555552################MMMMMMMMMMMMMMMMMM",
"MMMMMMMMMMMMMMMMMMMMMMMM55555.###############MMMMMMMMMMMMMMMMMMM",
"MMMMMMMMMMMMMMMMMMMMMMMM55555-###############MMMMMMMMMMMMMMMMMMM",
"MMMMMMMMMMMMMMMMMMMMMMMM55555O##############MMMMMMMMMMMMMMMMMMMM",
"MMMMMMMMMMMMMMMMMMMMMMMMM5553###############MMMMMMMMMMMMMMMMMMMM",
"MMMMMMMMMMMMMMMMMMMMMMMMM555.##############MMMMMMMMMMMMMMMMMMMMM",
"MMMMMMMMMMMMMMMMMMMMMMMMM555;#############MMMMMMMMMMMMMMMMMMMMMM",
"MMMMMMMMMMMMMMMMMMMMMMMMM555$#############MMMMMMMMMMMMMMMMMMMMMM",
"MMMMMMMMMMMMMMMMMMMMMMMMM552#############MMMMMMMMMMMMMMMMMMMMMMM",
"MMMMMMMMMMMMMMMMMMMMMMMMMM5:############MMMMMMMMMMMMMMMMMMMMMMMM",
"MMMMMMMMMMMMMMMMMMMMMMMMMM5=###########MMMMMMMMMMMMMMMMMMMMMMMMM",
"MMMMMMMMMMMMMMMMMMMMMMMMMM5##########MMMMMMMMMMMMMMMMMMMMMMMMMMM",
"MMMMMMMMMMMMMMMMMMMMMMMMMM+#########MMMMMMMMMMMMMMMMMMMMMMMMMMMM",
"MMMMMMMMMMMMMMMMMMMMMMMMMMM########MMMMMMMMMMMMMMMMMMMMMMMMMMMMM",
"MMMMMMMMMMMMMMMMMMMMMMMMMMM########MMMMMMMMMMMMMMMMMMMMMMMMMMMMM",
"MMMMMMMMMMMMMMMMMMMMMMMMMMM########MMMMMMMMMMMMMMMMMMMMMMMMMMMMM",
"MMMMMMMMMMMMMMMMMMMMMMMMMMM########MMMMMMMMMMMMMMMMMMMMMMMMMMMMM",
"MMMMMMMMMMMMMMMMMMMMMMMMMMM########MMMMMMMMMMMMMMMMMMMMMMMMMMMMM",
"MMMMMMMMMMMMMMMMMMMMMMMMMMM########MMMMMMMMMMMMMMMMMMMMMMMMMMMMM",
"MMMMMMMMMMMMMMMMMMMMMMMMMMM########MMMMMMMMMMMMMMMMMMMMMMMMMMMMM",
"MMMMMMMMMMMMMMMMMMMMMMMMMMM########MMMMMMMMMMMMMMMMMMMMMMMMMMMMM",
"MMMMMMMMMMMMMMMMMMMMMMMMMMM########MMMMMMMMMMMMMMMMMMMMMMMMMMMMM",
"MMMMMMMMMMMMMMMMMMMMMMMMMMM########MMMMMMMMMMMMMMMMMMMMMMMMMMMMM",
"MMMMMMMMMMMMMMM#######MMMMM########MMMMMMMMMMMMMMMMMMMMMMMMMMMMM",
"MMMMMMMMMMMMMMM#######MMMM#########MMMMMMMMMMMMMMMMMMMMMMMMMMMMM",
"MMMMMMMMMMMMMMM#######MMMM#########MMMMMMMMMMMMMMMMMMMMMMMMMMMMM",
"MMMMMMMMMMMMMMM####################MMMMMMMMMMMMMMMMMMMMMMMMMMMMM",
"MMMMMMMMMMMMMMM####################MMMMMMMMMMMMMMMMMMMMMMMMMMMMM",
"MMMMMMMMMMMMMMM###################MMMMMMMMMMMMMMMMMMMMMMMMMMMMMM",
"MMMMMMMMMMMMMMMM##################MMMMMMMMMMMMMMMMMMMMMMMMMMMMMM",
"MMMMMMMMMMMMMMMMM################MMMMMMMMMMMMMMMMMMMMMMMMMMMMMMM",
"MMMMMMMMMMMMMMMMMM##############MMMMMMMMMMMMMMMMMMMMMMMMMMMMMMMM",
"MMMMMMMMMMMMMMMMMMM############MMMMMMMMMMMMMMMMMMMMMMMMMMMMMMMMM",
"MMMMMMMMMMMMMMMMMMMMMMMMMMMMMMMMMMMMMMMMMMMMMMMMMMMMMMMMMMMMMMMM"
};
